<svg xmlns="http://www.w3.org/2000/svg" viewBox="0 0 160 90">
  <defs>
    <linearGradient id="camBg" x1="0" y1="0" x2="0" y2="1">
      <stop offset="0" stop-color="#10161f"/>
      <stop offset="1" stop-color="#070a0e"/>
    </linearGradient>
  </defs>
  <rect width="160" height="90" fill="url(#camBg)"/>
  <!-- faint scanlines -->
  <g stroke="#ffffff" stroke-opacity="0.03" stroke-width="1">
    <line x1="0" y1="18" x2="160" y2="18"/>
    <line x1="0" y1="36" x2="160" y2="36"/>
    <line x1="0" y1="54" x2="160" y2="54"/>
    <line x1="0" y1="72" x2="160" y2="72"/>
  </g>
  <!-- viewfinder corners -->
  <g stroke="#9aa6b8" stroke-opacity="0.55" stroke-width="2" fill="none" stroke-linecap="round">
    <path d="M12 22 V12 H22"/>
    <path d="M148 22 V12 H138"/>
    <path d="M12 68 V78 H22"/>
    <path d="M148 68 V78 H138"/>
  </g>
  <!-- CCTV camera icon -->
  <g fill="#5b6678">
    <rect x="62" y="40" width="26" height="12" rx="2"/>
    <path d="M88 43 L99 38 L99 54 L88 49 Z"/>
    <rect x="70" y="52" width="3" height="7"/>
    <rect x="64" y="58" width="14" height="2.5" rx="1"/>
    <circle cx="68" cy="46" r="2.4" fill="#0b0f16"/>
  </g>
</svg>
